<?xml version="1.0" encoding="UTF-8"?>
<svg xmlns="http://www.w3.org/2000/svg" xmlns:xlink="http://www.w3.org/1999/xlink" width="512pt" height="400pt" viewBox="0 0 512 400" version="1.1">
<defs>
<clipPath id="clip1">
  <path d="M 5 19 L 507 19 L 507 320 L 5 320 Z M 5 19 "/>
</clipPath>
<clipPath id="clip2">
  <path d="M 148.242188 -230.90625 L 658.15625 63.492188 L 510.382812 319.445312 L 0.46875 25.046875 Z M 148.242188 -230.90625 "/>
</clipPath>
<clipPath id="clip3">
  <path d="M 0 0 L 512 0 L 512 320 L 0 320 Z M 0 0 "/>
</clipPath>
<clipPath id="clip4">
  <path d="M 148.242188 -230.90625 L 658.15625 63.492188 L 510.382812 319.445312 L 0.46875 25.046875 Z M 148.242188 -230.90625 "/>
</clipPath>
<clipPath id="clip5">
  <path d="M 55 49 L 457 49 L 457 293 L 55 293 Z M 55 49 "/>
</clipPath>
<clipPath id="clip6">
  <path d="M 148.242188 -230.90625 L 658.15625 63.492188 L 509.804688 320.441406 L -0.109375 26.042969 Z M 148.242188 -230.90625 "/>
</clipPath>
<clipPath id="clip7">
  <path d="M 13 7 L 499 7 L 499 321 L 13 321 Z M 13 7 "/>
</clipPath>
<clipPath id="clip8">
  <path d="M 148.242188 -230.90625 L 658.15625 63.492188 L 509.804688 320.441406 L -0.109375 26.042969 Z M 148.242188 -230.90625 "/>
</clipPath>
<clipPath id="clip9">
  <path d="M 5 23 L 507 23 L 507 324 L 5 324 Z M 5 23 "/>
</clipPath>
<clipPath id="clip10">
  <path d="M 363.757812 573.40625 L -146.15625 279.007812 L 1.617188 23.054688 L 511.53125 317.453125 Z M 363.757812 573.40625 "/>
</clipPath>
<clipPath id="clip11">
  <path d="M 0 23 L 512 23 L 512 395 L 0 395 Z M 0 23 "/>
</clipPath>
<clipPath id="clip12">
  <path d="M 363.757812 573.40625 L -146.15625 279.007812 L 1.617188 23.054688 L 511.53125 317.453125 Z M 363.757812 573.40625 "/>
</clipPath>
<clipPath id="clip13">
  <path d="M 55 49 L 457 49 L 457 293 L 55 293 Z M 55 49 "/>
</clipPath>
<clipPath id="clip14">
  <path d="M 363.757812 573.40625 L -146.15625 279.007812 L 2.195312 22.058594 L 512.109375 316.457031 Z M 363.757812 573.40625 "/>
</clipPath>
<clipPath id="clip15">
  <path d="M 13 22 L 499 22 L 499 336 L 13 336 Z M 13 22 "/>
</clipPath>
<clipPath id="clip16">
  <path d="M 363.757812 573.40625 L -146.15625 279.007812 L 2.195312 22.058594 L 512.109375 316.457031 Z M 363.757812 573.40625 "/>
</clipPath>
<clipPath id="clip17">
  <path d="M 140 56 L 372 56 L 372 287 L 140 287 Z M 140 56 "/>
</clipPath>
<clipPath id="clip18">
  <path d="M 455.1875 286.25 C 442.484375 308.25 343.007812 274.601562 233 211.085938 C 122.992188 147.574219 44.113281 78.25 56.8125 56.25 C 69.515625 34.25 168.992188 67.898438 279 131.414062 C 389.007812 194.925781 467.886719 264.25 455.1875 286.25 "/>
</clipPath>
<clipPath id="clip19">
  <path d="M 70 49 L 442 49 L 442 293 L 70 293 Z M 70 49 "/>
</clipPath>
<clipPath id="clip20">
  <path d="M 455.1875 286.25 C 442.484375 308.25 343.007812 274.601562 233 211.085938 C 122.992188 147.574219 44.113281 78.25 56.8125 56.25 C 69.515625 34.25 168.992188 67.898438 279 131.414062 C 389.007812 194.925781 467.886719 264.25 455.1875 286.25 "/>
</clipPath>
</defs>
<g id="surface1">
<rect x="0" y="0" width="512" height="400" style="fill:rgb(100%,100%,100%);fill-opacity:1;stroke:none;"/>
<g clip-path="url(#clip1)" clip-rule="nonzero">
<g clip-path="url(#clip2)" clip-rule="nonzero">
<path style=" stroke:none;fill-rule:nonzero;fill:rgb(82.8125%,40.234375%,39.0625%);fill-opacity:1;" d="M 7.019531 27.5 C 22.894531 0 147.242188 42.0625 284.75 121.453125 C 422.257812 200.84375 520.859375 287.5 504.980469 315 C 489.105469 342.5 364.757812 300.4375 227.25 221.046875 C 89.742188 141.65625 -8.859375 55 7.019531 27.5 "/>
</g>
</g>
<g clip-path="url(#clip3)" clip-rule="nonzero">
<g clip-path="url(#clip4)" clip-rule="nonzero">
<path style="fill:none;stroke-width:5;stroke-linecap:butt;stroke-linejoin:miter;stroke:rgb(79.6%,23.5%,20%);stroke-opacity:1;stroke-miterlimit:10;" d="M 7.019531 27.5 C 22.894531 0 147.242188 42.0625 284.75 121.453125 C 422.257812 200.84375 520.859375 287.5 504.980469 315 C 489.105469 342.5 364.757812 300.4375 227.25 221.046875 C 89.742188 141.65625 -8.859375 55 7.019531 27.5 "/>
</g>
</g>
<g clip-path="url(#clip5)" clip-rule="nonzero">
<g clip-path="url(#clip6)" clip-rule="nonzero">
<path style=" stroke:none;fill-rule:nonzero;fill:rgb(100%,100%,100%);fill-opacity:1;" d="M 56.8125 56.25 C 69.515625 34.25 168.992188 67.898438 279 131.414062 C 389.007812 194.925781 467.886719 264.25 455.1875 286.25 C 442.484375 308.25 343.007812 274.601562 233 211.085938 C 122.992188 147.574219 44.113281 78.25 56.8125 56.25 "/>
</g>
</g>
<g clip-path="url(#clip7)" clip-rule="nonzero">
<g clip-path="url(#clip8)" clip-rule="nonzero">
<path style="fill:none;stroke-width:3;stroke-linecap:butt;stroke-linejoin:miter;stroke:rgb(79.6%,23.5%,20%);stroke-opacity:1;stroke-miterlimit:10;" d="M 56.8125 56.25 C 69.515625 34.25 168.992188 67.898438 279 131.414062 C 389.007812 194.925781 467.886719 264.25 455.1875 286.25 C 442.484375 308.25 343.007812 274.601562 233 211.085938 C 122.992188 147.574219 44.113281 78.25 56.8125 56.25 "/>
</g>
</g>
<path style="fill-rule:nonzero;fill:rgb(66.796875%,47.265625%,74.21875%);fill-opacity:1;stroke-width:5;stroke-linecap:butt;stroke-linejoin:miter;stroke:rgb(58.4%,34.5%,69.8%);stroke-opacity:1;stroke-miterlimit:10;" d="M 371 171.25 C 371 234.761719 319.511719 286.25 256 286.25 C 192.488281 286.25 141 234.761719 141 171.25 C 141 107.738281 192.488281 56.25 256 56.25 C 319.511719 56.25 371 107.738281 371 171.25 "/>
<g clip-path="url(#clip9)" clip-rule="nonzero">
<g clip-path="url(#clip10)" clip-rule="nonzero">
<path style=" stroke:none;fill-rule:nonzero;fill:rgb(82.8125%,40.234375%,39.0625%);fill-opacity:1;" d="M 504.980469 315 C 489.105469 342.5 364.757812 300.4375 227.25 221.046875 C 89.742188 141.65625 -8.859375 55 7.019531 27.5 C 22.894531 0 147.242188 42.0625 284.75 121.453125 C 422.257812 200.84375 520.859375 287.5 504.980469 315 "/>
</g>
</g>
<g clip-path="url(#clip11)" clip-rule="nonzero">
<g clip-path="url(#clip12)" clip-rule="nonzero">
<path style="fill:none;stroke-width:5;stroke-linecap:butt;stroke-linejoin:miter;stroke:rgb(79.6%,23.5%,20%);stroke-opacity:1;stroke-miterlimit:10;" d="M 504.980469 315 C 489.105469 342.5 364.757812 300.4375 227.25 221.046875 C 89.742188 141.65625 -8.859375 55 7.019531 27.5 C 22.894531 0 147.242188 42.0625 284.75 121.453125 C 422.257812 200.84375 520.859375 287.5 504.980469 315 "/>
</g>
</g>
<g clip-path="url(#clip13)" clip-rule="nonzero">
<g clip-path="url(#clip14)" clip-rule="nonzero">
<path style=" stroke:none;fill-rule:nonzero;fill:rgb(100%,100%,100%);fill-opacity:1;" d="M 455.1875 286.25 C 442.484375 308.25 343.007812 274.601562 233 211.085938 C 122.992188 147.574219 44.113281 78.25 56.8125 56.25 C 69.515625 34.25 168.992188 67.898438 279 131.414062 C 389.007812 194.925781 467.886719 264.25 455.1875 286.25 "/>
</g>
</g>
<g clip-path="url(#clip15)" clip-rule="nonzero">
<g clip-path="url(#clip16)" clip-rule="nonzero">
<path style="fill:none;stroke-width:3;stroke-linecap:butt;stroke-linejoin:miter;stroke:rgb(79.6%,23.5%,20%);stroke-opacity:1;stroke-miterlimit:10;" d="M 455.1875 286.25 C 442.484375 308.25 343.007812 274.601562 233 211.085938 C 122.992188 147.574219 44.113281 78.25 56.8125 56.25 C 69.515625 34.25 168.992188 67.898438 279 131.414062 C 389.007812 194.925781 467.886719 264.25 455.1875 286.25 "/>
</g>
</g>
<g clip-path="url(#clip17)" clip-rule="nonzero">
<g clip-path="url(#clip18)" clip-rule="nonzero">
<path style=" stroke:none;fill-rule:nonzero;fill:rgb(66.796875%,47.265625%,74.21875%);fill-opacity:1;" d="M 156.40625 113.75 C 188.164062 58.746094 258.496094 39.902344 313.5 71.65625 C 368.503906 103.414062 387.347656 173.746094 355.59375 228.75 C 323.835938 283.753906 253.503906 302.597656 198.5 270.84375 C 143.496094 239.085938 124.652344 168.753906 156.40625 113.75 "/>
</g>
</g>
<g clip-path="url(#clip19)" clip-rule="nonzero">
<g clip-path="url(#clip20)" clip-rule="nonzero">
<path style="fill:none;stroke-width:5;stroke-linecap:butt;stroke-linejoin:miter;stroke:rgb(58.4%,34.5%,69.8%);stroke-opacity:1;stroke-miterlimit:10;" d="M 156.40625 113.75 C 188.164062 58.746094 258.496094 39.902344 313.5 71.65625 C 368.503906 103.414062 387.347656 173.746094 355.59375 228.75 C 323.835938 283.753906 253.503906 302.597656 198.5 270.84375 C 143.496094 239.085938 124.652344 168.753906 156.40625 113.75 "/>
</g>
</g>
<path style="fill:none;stroke-width:3;stroke-linecap:butt;stroke-linejoin:miter;stroke:rgb(58.4%,34.5%,69.8%);stroke-opacity:1;stroke-miterlimit:10;" d="M 244.5 136.75 C 244.5 149.453125 234.203125 159.75 221.5 159.75 C 208.796875 159.75 198.5 149.453125 198.5 136.75 C 198.5 124.046875 208.796875 113.75 221.5 113.75 C 234.203125 113.75 244.5 124.046875 244.5 136.75 "/>
<path style="fill:none;stroke-width:3;stroke-linecap:butt;stroke-linejoin:miter;stroke:rgb(58.4%,34.5%,69.8%);stroke-opacity:1;stroke-miterlimit:10;" d="M 198.5 136.75 L 175.5 136.75 "/>
<path style="fill:none;stroke-width:3;stroke-linecap:butt;stroke-linejoin:miter;stroke:rgb(58.4%,34.5%,69.8%);stroke-opacity:1;stroke-miterlimit:10;" d="M 261.335938 159.75 C 255.027344 170.675781 244.507812 178.535156 232.238281 181.480469 C 219.96875 184.425781 207.027344 182.199219 196.445312 175.328125 C 185.863281 168.457031 178.570312 157.539062 176.269531 145.132812 C 173.972656 132.726562 176.867188 119.917969 184.285156 109.710938 C 176.867188 119.917969 173.972656 132.726562 176.269531 145.132812 C 178.570312 157.539062 185.863281 168.457031 196.445312 175.328125 C 207.027344 182.199219 219.96875 184.425781 232.238281 181.480469 C 244.507812 178.535156 255.027344 170.675781 261.335938 159.75 Z M 261.335938 159.75 "/>
<path style="fill:none;stroke-width:3;stroke-linecap:butt;stroke-linejoin:miter;stroke:rgb(58.4%,34.5%,69.8%);stroke-opacity:1;stroke-miterlimit:10;" d="M 253.316406 168.566406 L 275.167969 190.417969 "/>
<path style="fill-rule:nonzero;fill:rgb(37.5%,67.1875%,31.640625%);fill-opacity:1;stroke-width:3;stroke-linecap:butt;stroke-linejoin:miter;stroke:rgb(22%,59.8%,14.9%);stroke-opacity:1;stroke-miterlimit:10;" d="M 307.75 246 C 307.75 255.527344 300.027344 263.25 290.5 263.25 C 280.972656 263.25 273.25 255.527344 273.25 246 C 273.25 236.472656 280.972656 228.75 290.5 228.75 C 300.027344 228.75 307.75 236.472656 307.75 246 "/>
<path style="fill:none;stroke-width:2;stroke-linecap:butt;stroke-linejoin:miter;stroke:rgb(22%,59.8%,14.9%);stroke-opacity:1;stroke-miterlimit:10;" d="M 298.550781 242.550781 C 298.550781 247.148438 291.648438 247.148438 291.648438 242.550781 C 291.648438 237.949219 298.550781 237.949219 298.550781 242.550781 "/>
<path style=" stroke:none;fill-rule:nonzero;fill:rgb(0%,0%,0%);fill-opacity:1;" d="M 48.125 332.671875 L 48.125 336.546875 L 32.34375 336.546875 L 32.34375 378.25 L 21.171875 378.25 L 21.171875 336.546875 L 5.40625 336.546875 L 5.40625 332.671875 Z M 64.9375 378.25 L 54.53125 378.25 L 54.53125 343.90625 L 64.9375 343.90625 L 64.9375 346.46875 L 66.742188 344.871094 L 68.734375 343.625 L 70.882812 342.804688 L 73.15625 342.53125 L 74.515625 342.625 L 75.796875 342.90625 L 76.945312 343.332031 L 77.9375 343.90625 L 78.753906 344.597656 L 79.375 345.390625 L 79.769531 346.25 L 79.90625 347.171875 L 79.8125 348.054688 L 79.546875 348.859375 L 79.128906 349.554688 L 78.578125 350.15625 L 77.140625 351 L 76.296875 351.21875 L 75.40625 351.296875 L 74.261719 351.203125 L 73.34375 350.921875 L 71.90625 350.0625 L 70.578125 349.203125 L 69.8125 348.910156 L 68.90625 348.8125 L 68.382812 348.910156 L 67.859375 349.21875 L 66.8125 350.265625 L 65.828125 351.78125 L 64.9375 353.546875 Z M 100.945312 360.484375 L 97.898438 361.984375 L 96.433594 362.867188 L 95.117188 363.84375 L 93.980469 364.875 L 93.085938 365.984375 L 92.496094 367.136719 L 92.304688 368.359375 L 92.554688 370.234375 L 93.257812 371.765625 L 94.273438 372.8125 L 94.847656 373.09375 L 95.460938 373.1875 L 96.726562 372.992188 L 98.039062 372.40625 L 100.945312 370.4375 Z M 111.414062 378.25 L 100.945312 378.25 L 100.945312 375.5 L 99.242188 376.84375 L 97.398438 377.921875 L 95.117188 378.625 L 93.710938 378.820312 L 92.070312 378.890625 L 89.820312 378.71875 L 87.804688 378.21875 L 86.039062 377.414062 L 84.570312 376.34375 L 83.394531 375.03125 L 82.539062 373.515625 L 82.011719 371.816406 L 81.835938 370 L 82.023438 368.117188 L 82.585938 366.4375 L 83.46875 364.917969 L 84.632812 363.5625 L 86.035156 362.347656 L 87.664062 361.265625 L 91.414062 359.40625 L 95.554688 357.859375 L 99.789062 356.484375 L 100.945312 356.234375 L 100.945312 352.8125 L 100.855469 351.292969 L 100.601562 350.03125 L 100.203125 348.984375 L 99.679688 348.15625 L 99.015625 347.523438 L 98.226562 347.109375 L 97.328125 346.863281 L 96.335938 346.78125 L 95.183594 346.863281 L 94.242188 347.109375 L 93.488281 347.484375 L 92.898438 347.984375 L 92.460938 348.585938 L 92.164062 349.28125 L 91.945312 350.859375 L 91.742188 352.75 L 91.453125 353.585938 L 91.007812 354.328125 L 90.375 354.949219 L 89.554688 355.4375 L 88.511719 355.742188 L 87.210938 355.84375 L 86.160156 355.761719 L 85.210938 355.515625 L 84.367188 355.109375 L 83.664062 354.578125 L 83.085938 353.929688 L 82.648438 353.171875 L 82.375 352.328125 L 82.289062 351.421875 L 82.359375 350.542969 L 82.585938 349.703125 L 83.492188 348.125 L 84.921875 346.695312 L 86.773438 345.484375 L 88.992188 344.480469 L 91.539062 343.734375 L 94.328125 343.265625 L 97.257812 343.109375 L 100.6875 343.277344 L 103.617188 343.78125 L 106.046875 344.585938 L 108.007812 345.671875 L 109.511719 347.019531 L 110.570312 348.625 L 111.203125 350.445312 L 111.414062 352.484375 Z M 141.714844 354.71875 L 141.636719 353.480469 L 141.417969 352.390625 L 141.082031 351.445312 L 140.652344 350.671875 L 140.140625 350.070312 L 139.558594 349.640625 L 138.917969 349.367188 L 138.261719 349.28125 L 136.699219 349.5625 L 134.855469 350.328125 L 132.902344 351.53125 L 130.996094 353.09375 L 130.996094 378.25 L 120.527344 378.25 L 120.527344 343.90625 L 130.996094 343.90625 L 130.996094 346.59375 L 133.472656 345.074219 L 136.136719 344.03125 L 138.894531 343.40625 L 141.652344 343.203125 L 143.707031 343.40625 L 145.667969 344.03125 L 147.449219 344.992188 L 148.996094 346.265625 L 150.269531 347.808594 L 151.261719 349.59375 L 151.902344 351.566406 L 152.121094 353.671875 L 152.121094 378.25 L 141.714844 378.25 Z M 164.449219 368.640625 L 164.953125 369.960938 L 165.558594 371.128906 L 166.261719 372.144531 L 167.058594 373.015625 L 167.957031 373.703125 L 168.972656 374.199219 L 170.089844 374.492188 L 171.324219 374.59375 L 172.363281 374.523438 L 173.308594 374.3125 L 174.839844 373.546875 L 175.402344 373.023438 L 175.824219 372.421875 L 176.089844 371.753906 L 176.183594 371.046875 L 176.066406 369.890625 L 175.714844 368.875 L 175.167969 367.957031 L 174.449219 367.140625 L 172.527344 365.71875 L 170.136719 364.484375 L 166.105469 362.546875 L 164.183594 361.40625 L 162.464844 360.125 L 161.003906 358.664062 L 159.855469 357.015625 L 159.117188 355.128906 L 158.871094 352.96875 L 159.09375 350.886719 L 159.777344 349 L 160.871094 347.328125 L 162.324219 345.921875 L 164.121094 344.785156 L 166.246094 343.9375 L 168.652344 343.410156 L 171.292969 343.234375 L 173.675781 343.351562 L 175.777344 343.703125 L 177.609375 344.269531 L 179.214844 345.046875 L 180.605469 346.011719 L 181.824219 347.171875 L 182.894531 348.5 L 183.871094 349.984375 L 177.855469 352.109375 L 177.316406 350.628906 L 176.683594 349.53125 L 175.984375 348.730469 L 175.277344 348.171875 L 174.554688 347.804688 L 173.839844 347.625 L 172.574219 347.53125 L 170.746094 347.734375 L 169.214844 348.34375 L 168.605469 348.785156 L 168.136719 349.34375 L 167.839844 349.992188 L 167.746094 350.71875 L 167.867188 351.6875 L 168.246094 352.59375 L 168.855469 353.421875 L 169.652344 354.203125 L 171.792969 355.625 L 174.464844 356.90625 L 178.730469 358.90625 L 180.675781 360.074219 L 182.386719 361.40625 L 183.832031 362.875 L 184.964844 364.5 L 185.703125 366.292969 L 185.949219 368.296875 L 185.761719 370.457031 L 185.214844 372.484375 L 184.242188 374.316406 L 182.808594 375.90625 L 180.902344 377.199219 L 178.511719 378.1875 L 175.582031 378.804688 L 172.089844 379.015625 L 169.125 378.828125 L 166.652344 378.28125 L 164.582031 377.433594 L 162.855469 376.375 L 161.4375 375.136719 L 160.292969 373.765625 L 158.527344 370.921875 Z M 206.601562 343.90625 L 215.179688 343.90625 L 215.179688 348.09375 L 206.601562 348.09375 L 206.601562 378.25 L 196.195312 378.25 L 196.195312 348.09375 L 189.445312 348.09375 L 189.445312 343.90625 L 196.195312 343.90625 L 196.195312 339.96875 L 196.453125 337.375 L 197.242188 334.90625 L 198.511719 332.628906 L 200.210938 330.65625 L 202.289062 329.015625 L 204.726562 327.75 L 207.460938 326.929688 L 210.460938 326.65625 L 212.910156 326.785156 L 215.007812 327.171875 L 216.753906 327.769531 L 218.148438 328.53125 L 219.207031 329.433594 L 219.960938 330.453125 L 220.402344 331.53125 L 220.554688 332.640625 L 220.464844 333.480469 L 220.210938 334.28125 L 219.8125 334.996094 L 219.273438 335.625 L 217.851562 336.53125 L 217.011719 336.777344 L 216.101562 336.859375 L 214.945312 336.734375 L 214.117188 336.375 L 213.519531 335.808594 L 213.085938 335.125 L 212.585938 333.5 L 212.179688 331.859375 L 211.851562 331.171875 L 211.414062 330.609375 L 210.769531 330.230469 L 209.851562 330.109375 L 209.085938 330.195312 L 208.425781 330.460938 L 207.863281 330.898438 L 207.410156 331.519531 L 207.054688 332.308594 L 206.800781 333.277344 L 206.601562 335.75 Z M 237.828125 378.890625 L 235.8125 378.800781 L 233.882812 378.550781 L 232.027344 378.128906 L 230.25 377.546875 L 228.5625 376.808594 L 227 375.949219 L 225.558594 374.964844 L 224.234375 373.859375 L 223.03125 372.625 L 221.976562 371.285156 L 221.054688 369.839844 L 220.28125 368.296875 L 219.652344 366.664062 L 219.210938 364.972656 L 218.945312 363.222656 L 218.859375 361.421875 L 218.945312 359.472656 L 219.210938 357.609375 L 219.652344 355.816406 L 220.28125 354.109375 L 221.054688 352.488281 L 221.976562 350.988281 L 223.03125 349.605469 L 224.234375 348.34375 L 225.558594 347.195312 L 227 346.183594 L 228.558594 345.304688 L 230.234375 344.5625 L 232.003906 343.964844 L 233.855469 343.542969 L 235.785156 343.285156 L 237.796875 343.203125 L 239.800781 343.285156 L 241.738281 343.535156 L 243.597656 343.945312 L 245.390625 344.53125 L 247.082031 345.253906 L 248.660156 346.109375 L 250.113281 347.089844 L 251.453125 348.203125 L 252.652344 349.417969 L 253.71875 350.734375 L 254.644531 352.148438 L 255.4375 353.671875 L 256.0625 355.269531 L 256.511719 356.929688 L 256.78125 358.644531 L 256.875 360.421875 L 256.78125 362.296875 L 256.511719 364.121094 L 256.0625 365.882812 L 255.4375 367.59375 L 254.644531 369.21875 L 253.71875 370.738281 L 252.652344 372.152344 L 251.453125 373.46875 L 250.117188 374.660156 L 248.664062 375.71875 L 247.09375 376.640625 L 245.40625 377.4375 L 243.617188 378.070312 L 241.765625 378.527344 L 239.832031 378.796875 Z M 239.046875 374.703125 L 240.421875 374.472656 L 241.6875 373.78125 L 242.800781 372.683594 L 243.75 371.28125 L 244.523438 369.582031 L 245.109375 367.65625 L 245.480469 365.558594 L 245.609375 363.375 L 245.484375 360.175781 L 245.125 357.171875 L 244.492188 354.433594 L 243.546875 352.078125 L 242.265625 350.117188 L 240.65625 348.609375 L 239.71875 348.046875 L 238.6875 347.648438 L 237.550781 347.402344 L 236.328125 347.328125 L 235.125 347.554688 L 233.96875 348.25 L 232.902344 349.3125 L 231.96875 350.703125 L 231.1875 352.355469 L 230.578125 354.25 L 230.191406 356.3125 L 230.0625 358.46875 L 230.207031 361.703125 L 230.65625 364.75 L 231.40625 367.507812 L 232.4375 369.90625 L 233.726562 371.878906 L 235.265625 373.40625 L 236.125 373.96875 L 237.042969 374.378906 L 238.015625 374.621094 Z M 273.683594 378.25 L 263.277344 378.25 L 263.277344 343.90625 L 273.683594 343.90625 L 273.683594 346.46875 L 275.488281 344.871094 L 277.480469 343.625 L 279.628906 342.804688 L 281.902344 342.53125 L 283.261719 342.625 L 284.542969 342.90625 L 285.691406 343.332031 L 286.683594 343.90625 L 287.5 344.597656 L 288.121094 345.390625 L 288.515625 346.25 L 288.652344 347.171875 L 288.558594 348.054688 L 288.292969 348.859375 L 287.875 349.554688 L 287.324219 350.15625 L 285.886719 351 L 285.042969 351.21875 L 284.152344 351.296875 L 283.007812 351.203125 L 282.089844 350.921875 L 280.652344 350.0625 L 279.324219 349.203125 L 278.558594 348.910156 L 277.652344 348.8125 L 277.128906 348.910156 L 276.605469 349.21875 L 275.558594 350.265625 L 274.574219 351.78125 L 273.683594 353.546875 Z M 335.003906 354.921875 L 334.722656 352.75 L 334.394531 351.78125 L 333.957031 350.953125 L 333.421875 350.265625 L 332.800781 349.734375 L 332.089844 349.390625 L 331.316406 349.28125 L 329.441406 349.59375 L 327.519531 350.40625 L 325.722656 351.59375 L 324.253906 353.03125 L 324.253906 378.25 L 313.878906 378.25 L 313.878906 354.921875 L 313.796875 353.796875 L 313.566406 352.75 L 313.210938 351.78125 L 312.753906 350.953125 L 312.207031 350.265625 L 311.582031 349.734375 L 310.898438 349.390625 L 310.207031 349.28125 L 308.394531 349.59375 L 306.503906 350.40625 L 304.660156 351.59375 L 303.066406 353.03125 L 303.066406 378.25 L 292.660156 378.25 L 292.660156 343.90625 L 303.066406 343.90625 L 303.066406 346.859375 L 305.558594 345.355469 L 308.144531 344.203125 L 310.722656 343.453125 L 313.207031 343.203125 L 314.554688 343.277344 L 315.925781 343.515625 L 318.566406 344.359375 L 319.777344 344.972656 L 320.894531 345.71875 L 321.882812 346.574219 L 322.707031 347.53125 L 325.316406 345.765625 L 328.300781 344.40625 L 331.457031 343.53125 L 333.074219 343.285156 L 334.691406 343.203125 L 336.835938 343.417969 L 338.863281 344.0625 L 340.707031 345.0625 L 342.316406 346.375 L 343.640625 347.96875 L 344.660156 349.828125 L 345.3125 351.886719 L 345.535156 354.09375 L 345.535156 378.25 L 335.003906 378.25 Z M 369.601562 379.015625 L 367.789062 378.925781 L 366.039062 378.675781 L 364.34375 378.246094 L 362.710938 377.65625 L 361.148438 376.917969 L 359.691406 376.0625 L 358.335938 375.089844 L 357.085938 374 L 355.949219 372.792969 L 354.945312 371.503906 L 354.066406 370.117188 L 353.320312 368.640625 L 352.714844 367.085938 L 352.285156 365.492188 L 352.027344 363.859375 L 351.945312 362.1875 L 352.019531 360.191406 L 352.261719 358.269531 L 352.652344 356.425781 L 353.210938 354.65625 L 353.914062 352.96875 L 354.753906 351.402344 L 355.726562 349.949219 L 356.835938 348.625 L 358.066406 347.417969 L 359.414062 346.355469 L 360.882812 345.425781 L 362.476562 344.640625 L 364.164062 344.007812 L 365.953125 343.558594 L 367.828125 343.289062 L 369.804688 343.203125 L 371.550781 343.273438 L 373.230469 343.488281 L 374.832031 343.839844 L 376.367188 344.34375 L 379.144531 345.691406 L 380.371094 346.527344 L 381.492188 347.484375 L 383.378906 349.652344 L 384.804688 352.15625 L 385.320312 353.515625 L 385.691406 354.925781 L 385.914062 356.378906 L 385.992188 357.890625 L 362.179688 357.890625 L 362.425781 360.683594 L 362.992188 363.34375 L 363.832031 365.773438 L 364.929688 367.90625 L 366.246094 369.683594 L 367.773438 371.0625 L 369.496094 371.941406 L 370.421875 372.15625 L 371.398438 372.234375 L 373.109375 372.085938 L 374.789062 371.640625 L 376.390625 370.933594 L 377.867188 370.015625 L 379.171875 368.882812 L 380.289062 367.59375 L 381.179688 366.179688 L 381.804688 364.6875 L 387.148438 365.484375 L 386.105469 368.1875 L 384.570312 370.734375 L 382.636719 373.03125 L 380.414062 375.03125 L 377.941406 376.679688 L 375.257812 377.953125 L 372.441406 378.746094 Z M 374.023438 354.34375 L 373.792969 352.878906 L 373.367188 351.5625 L 372.761719 350.398438 L 372.023438 349.421875 L 371.140625 348.617188 L 370.132812 348.03125 L 369.011719 347.652344 L 367.820312 347.53125 L 366.855469 347.652344 L 365.914062 348.015625 L 365.027344 348.59375 L 364.226562 349.390625 L 363.515625 350.375 L 362.929688 351.546875 L 362.488281 352.875 L 362.242188 354.34375 Z M 403.953125 378.25 L 393.546875 378.25 L 393.546875 343.90625 L 403.953125 343.90625 L 403.953125 346.46875 L 405.757812 344.871094 L 407.75 343.625 L 409.898438 342.804688 L 412.171875 342.53125 L 413.53125 342.625 L 414.8125 342.90625 L 415.960938 343.332031 L 416.953125 343.90625 L 417.769531 344.597656 L 418.390625 345.390625 L 418.785156 346.25 L 418.921875 347.171875 L 418.828125 348.054688 L 418.5625 348.859375 L 418.144531 349.554688 L 417.59375 350.15625 L 416.15625 351 L 415.3125 351.21875 L 414.421875 351.296875 L 413.277344 351.203125 L 412.359375 350.921875 L 410.921875 350.0625 L 409.59375 349.203125 L 408.828125 348.910156 L 407.921875 348.8125 L 407.398438 348.910156 L 406.875 349.21875 L 405.828125 350.265625 L 404.84375 351.78125 L 403.953125 353.546875 Z M 427.257812 368.640625 L 427.761719 369.960938 L 428.367188 371.128906 L 429.070312 372.144531 L 429.867188 373.015625 L 430.765625 373.703125 L 431.78125 374.199219 L 432.898438 374.492188 L 434.132812 374.59375 L 435.171875 374.523438 L 436.117188 374.3125 L 437.648438 373.546875 L 438.210938 373.023438 L 438.632812 372.421875 L 438.898438 371.753906 L 438.992188 371.046875 L 438.875 369.890625 L 438.523438 368.875 L 437.976562 367.957031 L 437.257812 367.140625 L 435.335938 365.71875 L 432.945312 364.484375 L 428.914062 362.546875 L 426.992188 361.40625 L 425.273438 360.125 L 423.8125 358.664062 L 422.664062 357.015625 L 421.925781 355.128906 L 421.679688 352.96875 L 421.902344 350.886719 L 422.585938 349 L 423.679688 347.328125 L 425.132812 345.921875 L 426.929688 344.785156 L 429.054688 343.9375 L 431.460938 343.410156 L 434.101562 343.234375 L 436.484375 343.351562 L 438.585938 343.703125 L 440.417969 344.269531 L 442.023438 345.046875 L 443.414062 346.011719 L 444.632812 347.171875 L 445.703125 348.5 L 446.679688 349.984375 L 440.664062 352.109375 L 440.125 350.628906 L 439.492188 349.53125 L 438.792969 348.730469 L 438.085938 348.171875 L 437.363281 347.804688 L 436.648438 347.625 L 435.382812 347.53125 L 433.554688 347.734375 L 432.023438 348.34375 L 431.414062 348.785156 L 430.945312 349.34375 L 430.648438 349.992188 L 430.554688 350.71875 L 430.675781 351.6875 L 431.054688 352.59375 L 431.664062 353.421875 L 432.460938 354.203125 L 434.601562 355.625 L 437.273438 356.90625 L 441.539062 358.90625 L 443.484375 360.074219 L 445.195312 361.40625 L 446.640625 362.875 L 447.773438 364.5 L 448.511719 366.292969 L 448.757812 368.296875 L 448.570312 370.457031 L 448.023438 372.484375 L 447.050781 374.316406 L 445.617188 375.90625 L 443.710938 377.199219 L 441.320312 378.1875 L 438.390625 378.804688 L 434.898438 379.015625 L 431.933594 378.828125 L 429.460938 378.28125 L 427.390625 377.433594 L 425.664062 376.375 L 424.246094 375.136719 L 423.101562 373.765625 L 421.335938 370.921875 Z M 454.847656 374.34375 L 454.929688 373.417969 L 455.191406 372.546875 L 455.613281 371.742188 L 456.175781 371.0625 L 456.851562 370.503906 L 457.644531 370.078125 L 458.515625 369.796875 L 459.457031 369.703125 L 460.382812 369.796875 L 461.269531 370.078125 L 462.074219 370.503906 L 462.753906 371.0625 L 463.3125 371.742188 L 463.753906 372.546875 L 464.035156 373.417969 L 464.128906 374.34375 L 464.035156 375.28125 L 463.753906 376.15625 L 463.3125 376.945312 L 462.753906 377.625 L 462.074219 378.175781 L 461.269531 378.59375 L 460.382812 378.859375 L 459.457031 378.953125 L 458.515625 378.859375 L 457.644531 378.59375 L 456.851562 378.175781 L 456.175781 377.625 L 455.613281 376.945312 L 455.191406 376.15625 L 454.929688 375.28125 Z M 482.273438 378.25 L 482.007812 382.378906 L 481.679688 384.109375 L 481.226562 385.625 L 480.652344 386.941406 L 479.976562 388.105469 L 479.191406 389.113281 L 478.304688 389.96875 L 477.308594 390.679688 L 476.21875 391.269531 L 473.757812 392.0625 L 470.953125 392.457031 L 467.867188 392.59375 L 465.816406 392.5 L 464.007812 392.21875 L 462.441406 391.785156 L 461.148438 391.21875 L 460.128906 390.519531 L 459.398438 389.71875 L 458.949219 388.851562 L 458.804688 387.953125 L 458.878906 387.160156 L 459.125 386.445312 L 459.523438 385.792969 L 460.085938 385.21875 L 460.777344 384.742188 L 461.597656 384.410156 L 463.585938 384.140625 L 465.070312 384.390625 L 466.242188 385.046875 L 467.148438 385.90625 L 467.835938 386.796875 L 469.070312 388.0625 L 469.976562 388.390625 L 470.773438 388.171875 L 471.09375 387.859375 L 471.351562 387.375 L 471.695312 385.828125 L 471.804688 383.375 L 471.804688 345.765625 L 482.273438 342.890625 Z M 471.351562 332.9375 L 471.457031 331.90625 L 471.789062 330.953125 L 472.304688 330.078125 L 472.992188 329.328125 L 473.816406 328.714844 L 474.773438 328.25 L 475.832031 327.941406 L 476.960938 327.84375 L 478.078125 327.941406 L 479.132812 328.25 L 480.09375 328.714844 L 480.929688 329.328125 L 481.609375 330.078125 L 482.132812 330.953125 L 482.46875 331.90625 L 482.585938 332.9375 L 482.46875 333.953125 L 482.132812 334.921875 L 481.609375 335.78125 L 480.929688 336.515625 L 480.09375 337.121094 L 479.132812 337.59375 L 478.078125 337.882812 L 476.960938 337.984375 L 475.832031 337.882812 L 474.773438 337.59375 L 473.816406 337.121094 L 472.992188 336.515625 L 472.304688 335.78125 L 471.789062 334.921875 L 471.457031 333.953125 Z M 501.246094 378.25 L 490.917969 378.25 L 490.917969 330.078125 L 501.246094 327.203125 Z "/>
</g>
</svg>
